<?xml version="1.0" encoding="UTF-8"?> <svg xmlns="http://www.w3.org/2000/svg" id="Capa_1" data-name="Capa 1" viewBox="0 0 100 100"><defs><style>.cls-1{fill:#fff;}</style></defs><title>MenuWhite</title><path class="cls-1" d="M11,53.5a3.5,3.5,0,0,1,0-7H89a3.5,3.5,0,0,1,0,7Z"></path><path class="cls-1" d="M89,47a3,3,0,0,1,0,6H11a3,3,0,0,1,0-6H89m0-1H11a4,4,0,0,0,0,8H89a4,4,0,0,0,0-8Z"></path><path class="cls-1" d="M11,76.5a3.5,3.5,0,0,1,0-7H89a3.5,3.5,0,0,1,0,7Z"></path><path class="cls-1" d="M89,70a3,3,0,0,1,0,6H11a3,3,0,0,1,0-6H89m0-1H11a4,4,0,0,0-4,4H7a4,4,0,0,0,4,4H89a4,4,0,0,0,4-4h0a4,4,0,0,0-4-4Z"></path><path class="cls-1" d="M11,29.5a3.5,3.5,0,0,1,0-7H89a3.5,3.5,0,0,1,0,7Z"></path><path class="cls-1" d="M89,23a3,3,0,0,1,0,6H11a3,3,0,0,1,0-6H89m0-1H11a4,4,0,0,0,0,8H89a4,4,0,0,0,0-8Z"></path></svg> 